HIERARCHY
ROOT Hips
{
  OFFSET 2.59399e-05 120.011 0
  CHANNELS 6 Xposition Yposition Zposition Zrotation Xrotation Yrotation
  JOINT RightUpLeg
  {
    OFFSET -12.8929 0 0
    CHANNELS 3 Zrotation Xrotation Yrotation
    JOINT RightLeg
    {
      OFFSET 0 -60.3041 0
      CHANNELS 3 Zrotation Xrotation Yrotation
      JOINT RightFoot
      {
        OFFSET 0 -53.4222 0
        CHANNELS 3 Zrotation Xrotation Yrotation
        JOINT RightToeBase
        {
          OFFSET 0 -5.41187 17.795
          CHANNELS 3 Zrotation Xrotation Yrotation
          End Site
          {
            OFFSET 0 0 11.0798
          }
        }
      }
    }
  }
  JOINT LeftUpLeg
  {
    OFFSET 12.8929 0 0
    CHANNELS 3 Zrotation Xrotation Yrotation
    JOINT LeftLeg
    {
      OFFSET 0 -60.3041 0
      CHANNELS 3 Zrotation Xrotation Yrotation
      JOINT LeftFoot
      {
        OFFSET 0 -53.4221 0
        CHANNELS 3 Zrotation Xrotation Yrotation
        JOINT LeftToeBase
        {
          OFFSET 0 -5.41187 17.795
          CHANNELS 3 Zrotation Xrotation Yrotation
          End Site
          {
            OFFSET 0 0 11.0798
          }
        }
      }
    }
  }
  JOINT Spine
  {
    OFFSET 0 0.123192 0
    CHANNELS 3 Zrotation Xrotation Yrotation
    JOINT Spine1
    {
      OFFSET 0 41.8862 0
      CHANNELS 3 Zrotation Xrotation Yrotation
      JOINT RightShoulder
      {
        OFFSET 0 31.7409 0
        CHANNELS 3 Zrotation Xrotation Yrotation
        JOINT RightDummyShoulder
        {
          OFFSET 0 0 0
          CHANNELS 3 Zrotation Xrotation Yrotation
          JOINT RightArm
          {
            OFFSET -26.6195 -0.000152588 0
            CHANNELS 3 Zrotation Xrotation Yrotation
            JOINT RightForeArm
            {
              OFFSET -34.6831 -8.81118e-05 -7.64892e-05
              CHANNELS 3 Zrotation Xrotation Yrotation
              JOINT RightHand
              {
                OFFSET -29.3377 -0.000122476 0
                CHANNELS 3 Zrotation Xrotation Yrotation
                End Site
                {
                  OFFSET -15.4188 0 0
                }
              }
            }
          }
        }
      }
      JOINT LeftShoulder
      {
        OFFSET 0 31.7409 0
        CHANNELS 3 Zrotation Xrotation Yrotation
        JOINT LeftDummyShoulder
        {
          OFFSET 0 0 0
          CHANNELS 3 Zrotation Xrotation Yrotation
          JOINT LeftArm
          {
            OFFSET 26.6195 -0.000152588 0
            CHANNELS 3 Zrotation Xrotation Yrotation
            JOINT LeftForeArm
            {
              OFFSET 34.6831 -7.98427e-05 -8.16574e-05
              CHANNELS 3 Zrotation Xrotation Yrotation
              JOINT LeftHand
              {
                OFFSET 29.3377 -0.000123325 0
                CHANNELS 3 Zrotation Xrotation Yrotation
                End Site
                {
                  OFFSET 15.4188 0 0
                }
              }
            }
          }
        }
      }
      JOINT Neck
      {
        OFFSET 0 24.8104 0
        CHANNELS 3 Zrotation Xrotation Yrotation
        JOINT Head
        {
          OFFSET 0 21.3219 0
          CHANNELS 3 Zrotation Xrotation Yrotation
          End Site
          {
            OFFSET 0 17.7899 0
          }
        }
      }
    }
  }
}
MOTION
Frames:	19
Frame Time:	0.0333333
2.59399e-05 120.011 0 0 0 -0 -1.36559e-05 -0.379645 1.36883e-06 7.0267e-07 0.8082 -1.37349e-06 1.2973e-05 -0.428555 9.70319e-08 -4.15768e-30 7.06225e-31 5.6498e-30 -1.02453e-05 -9.36057e-07 -9.36057e-07 -2.72728e-06 -5.89413e-06 9.36057e-07 1.29726e-05 6.83019e-06 -1.54645e-12 -1.81833e-29 0 -0 0 0 -0 0 0 -0 0 0 -0 0 0 -0 0.000106513 -4.26903e-06 0.000126358 -0.000107306 -2.5609e-06 -0.000136972 7.92413e-07 6.83017e-06 1.06132e-05 0 0 -0 0 0 -0 -0.000120173 -1.7077e-06 -0.000134896 0.000122623 1.70799e-06 0.000143852 -2.44952e-06 1.91447e-13 -8.95612e-06 0 0 -0 0 0 -0 
50.8373 120.774 24.6693 0.955788 -3.39451 -1.8404 -3.37024 3.99917 -8.68362 0.356644 6.58932 -0.363129 -11.0199 -2.74706 -0.277424 3.86424 -14.4203 -3.6608 0.89584 4.52931 8.0824 -1.49537 6.64808 -2.92668 2.93914 -8.42365 0.217026 0.740271 -0.601918 -2.99758 1.75429 1.68812 0.905852 -4.3218 1.40064 1.53116 22.2137 4.48596 12.1178 2.5842e-15 0 -0 56.109 15.626 3.45357 4.81817 -7.61948 10.3152 3.28757 0.164224 5.72135 -29.3291 3.08585 -5.19914 -2.70844e-15 0 -7.95139e-16 -45.5025 23.913 -13.1722 -5.48175 -18.5751 -1.28911 -11.1831 0.473797 -4.75977 7.13134 2.15813 -2.07012 -5.45522 1.49912 1.48663 
50.9276 120.778 24.6999 1.01732 -3.71025 -1.74145 -3.49823 4.36836 -8.84134 0.391083 6.54194 -0.287826 -11.0858 -2.69528 -0.27389 3.85646 -14.3919 -3.76582 0.701473 4.97565 7.95641 -1.34488 6.35235 -2.85339 2.82933 -8.37423 0.207555 0.761389 -0.401733 -3.12144 1.71315 2.20686 0.868835 -4.30868 1.1934 1.49248 22.1518 4.46854 12.0885 1.98785e-15 -7.95139e-16 -0 56.1876 15.836 3.40921 4.72518 -7.09833 10.4109 3.04466 0.142815 5.34441 -29.4907 3.10844 -5.22333 -1.98785e-15 0 -7.95139e-16 -45.1476 23.7594 -13.2322 -5.48646 -21.2817 -0.573884 -12.2817 0.628827 -5.77628 6.98898 2.20221 -2.09091 -5.25995 1.41469 1.37402 
50.7919 120.762 24.5087 0.96724 -2.99546 -1.75207 -3.25114 3.55709 -8.43627 0.236655 6.53075 -0.637016 -11.3066 -2.3741 -0.249265 3.79655 -14.146 -4.31173 0.841559 4.12662 7.9043 -1.37328 6.46143 -2.87073 2.68535 -8.37577 0.197014 0.742351 0.0680989 -3.11807 1.05028 1.45525 1.01986 -3.27415 1.12803 1.44529 21.8308 4.34801 11.835 -2.38542e-15 -1.59028e-15 -1.59028e-15 56.2273 16.0866 3.59903 4.47301 -5.70898 10.0444 2.82212 0.119355 4.85724 -30.3311 3.20458 -5.28913 -5.96354e-15 3.97569e-16 -1.59028e-15 -44.3995 26.0505 -12.9063 -5.98604 -19.9918 -2.0807 -9.7879 0.340966 -4.01946 6.4334 2.83962 -2.11472 -4.86124 0.550489 1.07868 
50.8039 120.747 24.4756 0.959748 -2.93287 -1.6904 -3.24187 3.48763 -8.45246 0.256665 6.5235 -0.887796 -11.2476 -2.43003 -0.253103 3.80939 -14.1979 -4.03458 0.811488 4.08271 7.81153 -1.38447 6.40503 -3.28135 3.15943 -7.98541 0.220698 0.70558 0.276637 -2.99947 1.22532 1.31909 1.05208 -3.58852 1.30681 1.54315 22.0809 4.32795 11.639 1.98785e-16 -7.95139e-16 -1.59028e-15 55.798 15.7083 4.44309 4.04428 -3.11175 8.55117 4.11985 0.175173 4.87154 -29.9572 3.20647 -5.38434 4.42296e-15 7.95139e-16 -0 -45.2271 23.7324 -13.2934 -5.47855 -17.9146 -0.821598 -10.3696 0.397249 -4.37663 6.63018 2.74736 -2.26837 -4.88354 0.505106 0.988704 
50.8409 120.77 24.4703 0.935193 -3.01017 -1.70012 -3.24565 3.5845 -8.48414 0.235339 6.50199 -0.717275 -10.8566 -2.67624 -0.267395 3.68439 -13.669 -4.21563 0.893399 4.17333 7.94973 -1.52532 6.38138 -3.3843 3.39965 -7.92404 0.235594 0.702293 0.29678 -2.98923 0.982165 1.47702 0.998889 -2.99571 1.27039 1.37492 21.6083 4.28117 11.7127 -2.78299e-15 7.95139e-16 1.59028e-15 55.9821 15.7709 4.54602 4.08772 -3.22337 8.33331 3.47876 0.151472 4.98432 -30.8962 3.19965 -5.14199 -2.43511e-15 3.97569e-16 -7.95139e-16 -44.2233 24.6971 -13.1874 -5.69967 -19.1064 -1.3498 -10.2278 0.388915 -4.34342 5.89761 2.76909 -1.91978 -4.58455 0.365407 1.02618 
50.8776 120.781 24.4244 0.993549 -2.92066 -1.76421 -3.33017 3.46382 -8.5395 0.24923 6.48349 -0.544183 -10.8535 -2.5771 -0.25749 3.69293 -13.7049 -4.26524 0.73982 4.12415 7.77633 -1.44314 6.19437 -3.22503 3.41067 -7.81048 0.232834 0.682541 0.129438 -2.87859 0.651939 1.30384 1.13643 -2.56067 1.4836 1.45241 21.5576 4.28227 11.7424 -1.19271e-15 0 1.59028e-15 55.9147 16.0568 4.50554 4.25939 -3.81369 8.36714 3.60643 0.154902 4.9227 -30.8712 3.23103 -5.23387 -1.41634e-15 -3.97569e-16 -0 -43.7646 26.1283 -13.3938 -6.07601 -20.5673 -1.75134 -10.2577 0.399177 -4.44509 5.99872 2.64599 -1.98473 -4.98281 0.465577 1.08325 
50.9185 120.788 24.385 1.02313 -2.83236 -1.7919 -3.37951 3.36549 -8.56216 0.261832 6.44936 -0.457486 -11.0897 -2.38628 -0.244993 3.73809 -13.8955 -4.25949 0.719884 4.09053 7.79507 -1.49589 6.06217 -3.13784 3.24471 -7.74415 0.219776 0.692126 0.359496 -2.95778 1.29021 1.44092 1.1006 -3.71511 1.19608 1.63572 22.1762 4.35932 11.7 -1.78906e-15 0 1.59028e-15 55.7973 15.9964 4.39457 4.22925 -3.73541 8.503 3.28506 0.147149 5.12843 -29.7265 3.18266 -5.37307 -4.37326e-15 -3.97569e-16 -0 -45.2462 23.8706 -13.5171 -5.48383 -18.1754 -0.458804 -10.0084 0.386687 -4.41406 6.90924 2.73304 -2.2626 -5.37094 0.524484 1.1948 
50.9131 120.797 24.3811 1.02972 -2.86786 -1.81031 -3.38138 3.38957 -8.55563 0.21617 6.45772 -0.642002 -10.6881 -2.74912 -0.270238 3.5869 -13.2639 -3.92811 0.728363 4.08401 7.85763 -1.53542 6.19569 -3.10016 3.05054 -7.93064 0.212045 0.696062 0.814716 -3.04772 1.1821 1.55325 1.06164 -3.5646 1.19899 1.56298 22.0991 4.36421 11.7552 -2.18663e-15 7.95139e-16 -0 55.7767 15.8923 4.47502 4.22324 -3.84042 8.48378 3.54505 0.156253 5.0476 -29.8227 3.15764 -5.28093 -1.31695e-15 -3.97569e-16 -0 -45.0998 24.0973 -13.4241 -5.54307 -18.3697 -0.753991 -10.0727 0.392747 -4.45437 6.44313 2.76251 -2.12991 -4.8823 0.530922 1.06703 
50.9095 120.784 24.4017 0.979551 -2.91088 -1.80323 -3.33595 3.43088 -8.51767 0.262982 6.47187 -0.549323 -11.0997 -2.43852 -0.248976 3.73926 -13.8947 -4.19027 0.809607 4.07824 7.89532 -1.53924 6.32711 -3.222 3.21611 -7.93447 0.223341 0.712541 0.155343 -3.00785 1.00769 1.57921 1.10051 -3.1243 1.24958 1.51622 21.7185 4.29955 11.7215 6.95746e-15 0 -0 55.9278 15.791 4.55184 4.08735 -3.20259 8.37045 3.2697 0.147272 5.154 -30.3385 3.17699 -5.21119 4.02539e-15 0 7.95139e-16 -44.5377 24.5578 -13.4321 -5.68361 -18.6857 -1.00465 -10.1474 0.402216 -4.52852 6.06394 2.79438 -2.09492 -4.83506 0.81783 0.98257 
50.8709 120.757 24.466 0.78858 -3.08126 -1.88737 -3.14784 3.62965 -8.33412 0.300426 6.4941 -0.328728 -11.9904 -1.88647 -0.214269 3.95407 -14.8346 -4.82069 1.07146 4.12565 8.13719 -1.59368 6.6715 -3.35227 3.25399 -8.18722 0.232679 0.65781 0.214751 -2.79128 1.36275 1.79867 1.05556 -3.36681 1.22161 1.4935 21.7814 4.33601 11.8173 3.18055e-15 7.95139e-16 1.59028e-15 55.7941 15.8141 4.52298 4.07415 -3.3048 8.5505 3.36888 0.14651 4.97886 -30.3344 3.13873 -5.10783 -4.09993e-15 7.95139e-16 -0 -44.4076 24.6256 -13.4298 -5.66499 -18.6165 -0.955626 -10.2679 0.394126 -4.38339 5.9378 2.87535 -1.85218 -4.67038 0.72649 1.14412 
50.9255 120.737 24.4305 0.932941 -2.9284 -1.84778 -3.32158 3.42909 -8.50008 0.332677 6.52182 -0.684704 -11.4423 -2.40312 -0.254972 3.80386 -14.1754 -4.01458 0.839284 4.05477 7.9204 -1.56141 6.45079 -3.26286 3.80303 -7.767 0.257844 0.67257 -0.173208 -2.78721 0.651303 1.526 1.0985 -2.50263 1.44246 1.39125 21.7199 4.32465 11.8084 3.97569e-16 7.95139e-16 -0 55.5594 16.0415 4.59187 4.32059 -4.39189 8.55084 3.78171 0.165866 5.02463 -30.6858 3.15411 -5.06811 -1.49089e-16 -7.95139e-16 7.95139e-16 -43.8513 25.9122 -13.4204 -6.05532 -20.2353 -1.74067 -10.01 0.371532 -4.24071 5.71827 2.80203 -1.83538 -4.65103 0.77715 1.08461 
50.9313 120.748 24.4758 0.837504 -3.01452 -1.77468 -3.20719 3.57994 -8.43694 0.282885 6.45823 -0.728583 -11.2457 -2.36575 -0.246768 3.79354 -14.1305 -3.99775 0.982119 4.0086 8.05509 -1.57186 6.74966 -3.26475 3.35839 -8.18411 0.240508 0.817553 0.511606 -3.49641 1.35799 1.7631 1.00929 -3.42538 1.20124 1.4596 21.9735 4.36996 11.8384 4.17448e-15 0 -1.59028e-15 55.6704 16.3686 4.49385 4.76301 -6.28934 8.52547 3.24296 0.147071 5.18921 -30.1593 3.12502 -5.11089 8.57259e-15 -3.97569e-16 -7.95139e-16 -44.6828 24.1776 -13.3837 -5.58146 -18.2591 -0.973938 -10.2079 0.39113 -4.37701 6.06151 3.02088 -1.96019 -4.67286 0.771281 1.08614 
50.9508 120.772 24.4687 0.893315 -2.90207 -1.75088 -3.27076 3.46472 -8.46658 0.275999 6.48634 -0.640789 -11.2237 -2.42801 -0.252207 3.75555 -13.9711 -4.11316 0.907995 3.94526 7.99217 -1.56208 6.61847 -3.34184 3.07664 -8.20241 0.221104 0.732412 0.916833 -3.21271 1.22396 1.59192 1.08891 -3.27265 1.28966 1.51942 21.9858 4.29044 11.5561 -1.98785e-15 -7.95139e-16 -0 55.5649 16.4021 4.58694 4.70538 -5.93514 8.56522 3.07341 0.143811 5.36024 -30.1732 3.16737 -5.22415 -0 0 7.95139e-16 -44.5253 24.4661 -13.5012 -5.6304 -18.3158 -0.925889 -10.4273 0.399388 -4.37459 5.97065 2.98496 -2.03371 -4.59426 0.833653 0.966949 
50.9834 120.764 24.5091 0.859019 -2.94606 -1.69456 -3.26338 3.5394 -8.52158 0.304205 6.48763 -0.678532 -10.9013 -2.46197 -0.247107 3.71353 -13.7885 -4.19633 0.95453 4.00036 8.03612 -1.63293 6.6554 -3.46944 3.5272 -8.1419 0.251208 0.751628 0.385846 -3.20795 1.42735 1.68508 1.0217 -3.51997 1.21576 1.49454 21.9995 4.33666 11.7097 1.98785e-16 -7.95139e-16 -1.59028e-15 55.6784 16.4036 4.51435 4.83575 -6.58538 8.49072 2.6323 0.127169 5.52682 -29.834 3.14961 -5.25578 -1.21756e-15 -3.97569e-16 7.95139e-16 -45.1005 23.8278 -13.437 -5.51241 -18.0975 -0.79323 -10.3208 0.386293 -4.27506 6.12084 2.93312 -2.01553 -4.51834 1.05782 1.02178 
51.0467 120.711 24.4596 1.02087 -2.79599 -1.55662 -3.48641 3.37781 -8.63023 0.445746 6.46574 -0.483915 -11.3203 -2.09155 -0.220418 3.93059 -14.7379 -4.86777 0.836868 3.62753 7.97519 -1.65 7.0173 -3.41291 3.45476 -8.32268 0.251588 0.773441 0.461049 -3.31012 1.00793 1.49431 0.998044 -3.11959 1.32497 1.39304 21.8841 4.31283 11.6848 3.37934e-15 0 -0 55.6235 16.5093 4.532 4.87087 -6.67289 8.53187 2.78383 0.137737 5.66413 -30.121 3.15197 -5.1942 7.10655e-15 -3.97569e-16 7.95139e-16 -44.7572 24.1886 -13.4997 -5.58398 -18.185 -0.98094 -10.4052 0.400621 -4.39733 5.91095 2.80087 -1.93192 -4.5333 1.12678 1.03685 
51.0431 120.719 24.507 0.955066 -2.85735 -1.60747 -3.42437 3.46269 -8.61173 0.434071 6.46975 -0.214879 -11.0284 -2.08049 -0.212248 3.90254 -14.6235 -5.215 0.88684 3.71471 7.98142 -1.63279 7.05221 -3.51903 3.62098 -8.20656 0.259701 0.755339 0.11736 -3.18041 1.25773 1.61795 0.889248 -3.28613 1.2389 1.30775 21.8359 4.39855 12.0079 -5.96354e-16 1.59028e-15 1.59028e-15 55.7142 16.4606 4.34718 4.89246 -6.93082 8.76322 2.668 0.131875 5.66077 -30.1978 3.09971 -5.03251 3.57812e-15 -3.97569e-16 7.95139e-16 -44.9747 23.5495 -13.3368 -5.4536 -17.977 -0.984493 -10.2378 0.38135 -4.25548 5.56231 2.90965 -1.74764 -4.06527 0.997436 0.99851 
51.0902 120.769 24.5218 0.986738 -2.75179 -1.63673 -3.51746 3.32806 -8.67762 0.480169 6.5384 -0.256528 -11.7518 -1.76563 -0.195502 4.03753 -15.1977 -4.90424 0.803449 3.75734 7.92249 -1.64599 6.72221 -3.31686 3.55079 -8.01965 0.24897 0.787019 0.23162 -3.33045 1.30112 1.42575 0.911299 -3.37268 1.31262 1.36277 21.9785 4.41796 12.0025 -2.78299e-15 0 -1.59028e-15 55.682 16.6206 4.30624 5.07877 -7.63335 8.86344 2.4314 0.119756 5.64616 -30.0994 3.10971 -5.0829 1.50082e-14 3.97569e-16 -0 -44.7658 24.2966 -13.227 -5.62729 -18.8345 -1.41128 -10.2411 0.377964 -4.21559 5.73606 2.98481 -1.79788 -4.17623 0.980955 1.03314 
51.1195 120.713 24.5047 1.06675 -2.69835 -1.51458 -3.58792 3.29682 -8.74667 0.485882 6.48915 -0.564338 -11.1571 -2.26847 -0.234145 3.88898 -14.544 -4.40315 0.737931 3.57412 7.86771 -1.63004 6.96431 -3.38403 3.6162 -8.18324 0.258596 0.78001 0.179939 -3.29332 1.23997 1.42931 0.831898 -3.44661 1.23005 1.28669 22.0781 4.45116 12.0669 -2.5842e-15 0 -0 55.5535 16.0236 4.25488 4.41657 -5.08869 9.00374 2.96625 0.133547 5.15492 -30.1173 3.09441 -5.03663 4.64659e-15 -3.97569e-16 -0 -44.3411 25.6087 -13.0605 -5.9263 -20.1154 -2.11934 -10.0712 0.359112 -4.07434 5.87159 3.10181 -1.78058 -4.25794 0.888939 1.1148 
